<svg id="Icon_delete" xmlns="http://www.w3.org/2000/svg" width="10.184" height="12.556" viewBox="0 0 10.184 12.556">
  <path id="Path" d="M7.274,0A.727.727,0,0,1,8,.727H9.456a.727.727,0,1,1,0,1.455H.727a.727.727,0,1,1,0-1.455H2.182A.727.727,0,0,1,2.91,0Z" transform="translate(0 0)" fill="#1a243b"/>
  <path id="Shape" d="M7.5,10h-6A1.467,1.467,0,0,1,0,8.571V0H9V8.571A1.467,1.467,0,0,1,7.5,10ZM6.375,1.428A.367.367,0,0,0,6,1.786V8.214a.375.375,0,0,0,.75,0V1.786A.367.367,0,0,0,6.375,1.428Zm-3.75,0a.367.367,0,0,0-.375.357V8.214a.375.375,0,0,0,.75,0V1.786A.367.367,0,0,0,2.625,1.428Z" transform="translate(0.184 2.556)" fill="#1a243b"/>
</svg>
