<svg xmlns="http://www.w3.org/2000/svg" xmlns:xlink="http://www.w3.org/1999/xlink" width="88" height="600" viewBox="0 0 88 600">
  <defs>
    <clipPath id="clip-path">
      <rect id="Mask" width="88" height="600" rx="2" transform="translate(-8 -9)" fill="#0f1a2c"/>
    </clipPath>
    <linearGradient id="linear-gradient" x1="0.5" x2="0.5" y2="1" gradientUnits="objectBoundingBox">
      <stop offset="0" stop-color="#0f1a2c"/>
      <stop offset="1" stop-color="#60617d"/>
    </linearGradient>
  </defs>
  <g id="Nav" transform="translate(8 9)" clip-path="url(#clip-path)">
    <g id="Navigation">
      <path id="Container" d="M88.136,0l.014,600H.078L.484,0Z" transform="translate(-120.078 -12)" fill="url(#linear-gradient)"/>
      <path id="Cutout" d="M13.2-11.2H37.845C57-11.2,58.187-30,58.187-30c10.6,0,19.2,27.363,19.2,37.921s-19.2,37.921-19.2,37.921-.567-18.8-20.346-18.8H13.2A19.157,19.157,0,0,1-6,7.921,19.157,19.157,0,0,1,13.2-11.2Z" transform="translate(22.061 342.987)" fill="#fff"/>
      <g id="Dashboard" transform="translate(29.608 101.636)">
        <g id="Path_360" data-name="Path 360" transform="translate(-0.75 -0.756)" fill="none">
          <path d="M8.9,10.594a.817.817,0,0,1-.815.819H1.565a.817.817,0,0,1-.815-.819V1.575A.817.817,0,0,1,1.566.756l6.52.011a.817.817,0,0,1,.814.819Z" stroke="none"/>
          <path d="M 5.899543762207031 8.413101196289063 L 5.899543762207031 3.76322865486145 L 3.749993801116943 3.759648084640503 L 3.749993801116943 8.413101196289063 L 5.899543762207031 8.413101196289063 M 8.084593772888184 11.41310119628906 L 1.564953804016113 11.41310119628906 C 1.348223805427551 11.4126615524292 1.14056384563446 11.32608127593994 0.987703800201416 11.17244148254395 C 0.8348438143730164 11.01880168914795 0.7493337988853455 10.81069087982178 0.7499938011169434 10.59397125244141 L 0.7499938011169434 1.575131297111511 C 0.7490738034248352 1.123661279678345 1.114313840866089 0.7569213509559631 1.565793752670288 0.756001353263855 L 8.085423469543457 0.7668613195419312 C 8.536243438720703 0.7687113285064697 8.900473594665527 1.135181307792664 8.899543762207031 1.58600127696991 L 8.899543762207031 10.59397125244141 C 8.900473594665527 11.04511165618896 8.535734176635742 11.41172122955322 8.084593772888184 11.41310119628906 Z" stroke="none" fill="#fff"/>
        </g>
        <g id="Path_361" data-name="Path 361" transform="translate(-2.842 -0.756)" fill="none">
          <path d="M21.646,5.594a.81.81,0,0,1-.815.8h-6.52a.809.809,0,0,1-.815-.8V1.571a.809.809,0,0,1,.813-.8l6.52-.011a.811.811,0,0,1,.817.8Z" stroke="none"/>
          <path d="M 14.30506896972656 6.398011684417725 C 14.09244251251221 6.398019313812256 13.88828372955322 6.314308643341064 13.73681449890137 6.164860248565674 C 13.58395385742188 6.014040470123291 13.49732398986816 5.808640480041504 13.49599361419678 5.593900203704834 L 13.49599361419678 1.570950269699097 C 13.49875545501709 1.125864744186401 13.86044883728027 0.7668492197990417 14.30500888824463 0.7668492197990417 C 14.30645179748535 0.7668492197990417 14.30783939361572 0.7668527960777283 14.30928421020508 0.76686030626297 L 20.82892417907715 0.756000280380249 C 20.83091735839844 0.7559857964515686 20.83294677734375 0.7559784650802612 20.83493614196777 0.7559784650802612 C 21.27965927124023 0.7559784650802612 21.64188003540039 1.11462390422821 21.64554405212402 1.560080289840698 L 21.64555358886719 5.593900203704834 C 21.64233589172363 6.039171695709229 21.28037452697754 6.398006439208984 20.83573722839355 6.398006439208984 C 20.83402061462402 6.398006439208984 20.83231353759766 6.398001194000244 20.83059501647949 6.397990226745605 L 14.31095409393311 6.397990226745605 C 14.30900096893311 6.398004531860352 14.30702018737793 6.398011684417725 14.30506896972656 6.398011684417725 Z" stroke="none" fill="#fff"/>
        </g>
        <g id="Path_362" data-name="Path 362" transform="translate(-0.75 -3.341)" fill="none">
          <path d="M8.9,21.341a.812.812,0,0,1-.817.807l-6.52-.011a.81.81,0,0,1-.813-.806v-4.02a.81.81,0,0,1,.815-.806h6.52a.811.811,0,0,1,.815.806Z" stroke="none"/>
          <path d="M 8.088081359863281 22.14800262451172 C 8.086359977722168 22.14800262451172 8.084646224975586 22.14799690246582 8.08292293548584 22.14798736572266 L 1.56328284740448 22.13712692260742 C 1.562164306640625 22.13713073730469 1.560976624488831 22.13713455200195 1.559859037399292 22.13713455200195 C 1.11440372467041 22.13717079162598 0.7522971034049988 21.7772388458252 0.7500028610229492 21.33136749267578 L 0.7500028610229492 17.3117561340332 C 0.7511028051376343 17.0967960357666 0.8376128077507019 16.8911075592041 0.9904728531837463 16.73996734619141 C 1.142138600349426 16.59000778198242 1.346794366836548 16.5059814453125 1.559934020042419 16.5059814453125 C 1.561612248420715 16.5059814453125 1.563273549079895 16.5059871673584 1.564952850341797 16.50599670410156 L 8.084592819213867 16.50599670410156 C 8.086012840270996 16.50598907470703 8.087467193603516 16.50598526000977 8.088885307312012 16.50598526000977 C 8.534399032592773 16.50598526000977 8.896791458129883 16.86572647094727 8.899542808532715 17.3117561340332 L 8.899542808532715 21.34139633178711 C 8.896793365478516 21.78791236877441 8.533960342407227 22.14800262451172 8.088081359863281 22.14800262451172 Z" stroke="none" fill="#fff"/>
        </g>
        <g id="Path_363" data-name="Path 363" transform="translate(-2.842 -2.356)" fill="none">
          <path d="M14.312,21.163a.817.817,0,0,1-.816-.82V11.326a.817.817,0,0,1,.815-.82h6.52a.817.817,0,0,1,.815.82v9.006a.818.818,0,0,1-.814.82Z" stroke="none"/>
          <path d="M 16.49600410461426 18.15945434570313 L 18.64555168151855 18.15587425231934 L 18.64554595947266 13.50600051879883 L 16.49600410461426 13.50600051879883 L 16.49600410461426 18.15945434570313 M 14.31179428100586 21.16310119628906 C 14.09484386444092 21.16266059875488 13.88696384429932 21.07599067687988 13.73395442962646 20.92219161987305 C 13.58093452453613 20.76840019226074 13.49533367156982 20.56008148193359 13.49600410461426 20.34313011169434 L 13.49600410461426 11.32597064971924 C 13.49461364746094 10.87450122833252 13.85948371887207 10.50738048553467 14.31095409393311 10.50600051879883 L 20.83059501647949 10.50600051879883 C 21.28206443786621 10.50738048553467 21.64693450927734 10.87450122833252 21.64554405212402 11.32597064971924 L 21.64555358886719 20.33227157592773 C 21.64647483825684 20.78323173522949 21.28238487243652 21.14994049072266 20.83142471313477 21.15224075317383 L 14.31179428100586 21.16310119628906 Z" stroke="none" fill="#fff"/>
        </g>
      </g>
      <text id="Profile" transform="translate(181 197)" fill="#fff" font-size="30" font-family="SegoeUI, Segoe UI"><tspan x="0" y="0">Profile</tspan></text>
      <text id="Tasks" transform="translate(240 275)" fill="#fff" font-size="30" font-family="SegoeUI, Segoe UI"><tspan x="0" y="0">Tasks</tspan></text>
      <text id="Proxies" transform="translate(289 357)" fill="#fff" font-size="30" font-family="SegoeUI, Segoe UI"><tspan x="0" y="0">Proxies</tspan></text>
      <text id="Settings" transform="translate(354 420)" fill="#fff" font-size="30" font-family="SegoeUI, Segoe UI"><tspan x="0" y="0">Profiles</tspan></text>
      <text id="Settings-2" data-name="Settings" transform="translate(421 515)" fill="#fff" font-size="30" font-family="SegoeUI, Segoe UI"><tspan x="0" y="0">Settings</tspan></text>
    </g>
  </g>
</svg>
