<svg id="Icon_select_apps" xmlns="http://www.w3.org/2000/svg" width="19.334" height="19.334" viewBox="0 0 19.334 19.334">
  <path id="Path" d="M2.148,0A2.148,2.148,0,0,0,0,2.148V8.593a2.148,2.148,0,0,0,2.148,2.148H8.593a2.148,2.148,0,0,0,2.148-2.148V2.148A2.148,2.148,0,0,0,8.593,0Z" fill="#fff"/>
  <path id="Path-2" data-name="Path" d="M2.148,0A2.148,2.148,0,0,0,0,2.148V5.371A2.148,2.148,0,0,0,2.148,7.519H5.371A2.148,2.148,0,0,0,7.519,5.371V2.148A2.148,2.148,0,0,0,5.371,0Z" transform="translate(11.815 3.222)" fill="#fff"/>
  <path id="Path-3" data-name="Path" d="M0,2.148A2.148,2.148,0,0,1,2.148,0H5.371A2.148,2.148,0,0,1,7.519,2.148V5.371A2.148,2.148,0,0,1,5.371,7.519H2.148A2.148,2.148,0,0,1,0,5.371Z" transform="translate(11.815 11.815)" fill="#fff"/>
  <path id="Path-4" data-name="Path" d="M2.148,0A2.148,2.148,0,0,0,0,2.148V5.371A2.148,2.148,0,0,0,2.148,7.519H5.371A2.148,2.148,0,0,0,7.519,5.371V2.148A2.148,2.148,0,0,0,5.371,0Z" transform="translate(2.148 11.815)" fill="#fff"/>
</svg>
