<svg id="Icon_grid" xmlns="http://www.w3.org/2000/svg" width="19.508" height="19.508" viewBox="0 0 19.508 19.508">
  <path id="Path" d="M0,1.219A1.219,1.219,0,0,1,1.219,0H3.658A1.219,1.219,0,0,1,4.877,1.219V3.658A1.219,1.219,0,0,1,3.658,4.877H1.219A1.219,1.219,0,0,1,0,3.658Z" fill="#fff"/>
  <path id="Path-2" data-name="Path" d="M0,1.219A1.219,1.219,0,0,1,1.219,0H3.658A1.219,1.219,0,0,1,4.877,1.219V3.658A1.219,1.219,0,0,1,3.658,4.877H1.219A1.219,1.219,0,0,1,0,3.658Z" transform="translate(7.316)" fill="#fff"/>
  <path id="Path-3" data-name="Path" d="M1.219,0A1.219,1.219,0,0,0,0,1.219V3.658A1.219,1.219,0,0,0,1.219,4.877H3.658A1.219,1.219,0,0,0,4.877,3.658V1.219A1.219,1.219,0,0,0,3.658,0Z" transform="translate(14.631)" fill="#fff"/>
  <path id="Path-4" data-name="Path" d="M0,1.219A1.219,1.219,0,0,1,1.219,0H3.658A1.219,1.219,0,0,1,4.877,1.219V3.658A1.219,1.219,0,0,1,3.658,4.877H1.219A1.219,1.219,0,0,1,0,3.658Z" transform="translate(0 7.316)" fill="#fff"/>
  <path id="Path-5" data-name="Path" d="M1.219,0A1.219,1.219,0,0,0,0,1.219V3.658A1.219,1.219,0,0,0,1.219,4.877H3.658A1.219,1.219,0,0,0,4.877,3.658V1.219A1.219,1.219,0,0,0,3.658,0Z" transform="translate(7.316 7.316)" fill="#fff"/>
  <path id="Path-6" data-name="Path" d="M0,1.219A1.219,1.219,0,0,1,1.219,0H3.658A1.219,1.219,0,0,1,4.877,1.219V3.658A1.219,1.219,0,0,1,3.658,4.877H1.219A1.219,1.219,0,0,1,0,3.658Z" transform="translate(14.631 7.316)" fill="#fff"/>
  <path id="Path-7" data-name="Path" d="M1.219,0A1.219,1.219,0,0,0,0,1.219V3.658A1.219,1.219,0,0,0,1.219,4.877H3.658A1.219,1.219,0,0,0,4.877,3.658V1.219A1.219,1.219,0,0,0,3.658,0Z" transform="translate(0 14.631)" fill="#fff"/>
  <path id="Path-8" data-name="Path" d="M0,1.219A1.219,1.219,0,0,1,1.219,0H3.658A1.219,1.219,0,0,1,4.877,1.219V3.658A1.219,1.219,0,0,1,3.658,4.877H1.219A1.219,1.219,0,0,1,0,3.658Z" transform="translate(7.316 14.631)" fill="#fff"/>
  <path id="Path-9" data-name="Path" d="M1.219,0A1.219,1.219,0,0,0,0,1.219V3.658A1.219,1.219,0,0,0,1.219,4.877H3.658A1.219,1.219,0,0,0,4.877,3.658V1.219A1.219,1.219,0,0,0,3.658,0Z" transform="translate(14.631 14.631)" fill="#fff"/>
</svg>
