<svg id="Icon_settings" xmlns="http://www.w3.org/2000/svg" width="20" height="20" viewBox="0 0 20 20">
  <path id="Shape" d="M10.625,20H9.375a1.251,1.251,0,0,1-1.25-1.25l-.15-1.05a1.249,1.249,0,0,0-1.988-.824l-.848.637a1.251,1.251,0,0,1-1.768,0l-.884-.884a1.252,1.252,0,0,1,0-1.768l.637-.849A1.25,1.25,0,0,0,2.3,12.025l-1.05-.15A1.251,1.251,0,0,1,0,10.625V9.375a1.251,1.251,0,0,1,1.25-1.25l1.05-.15a1.25,1.25,0,0,0,.824-1.988l-.637-.848a1.253,1.253,0,0,1,0-1.768l.884-.884a1.251,1.251,0,0,1,1.768,0l.848.637A1.249,1.249,0,0,0,7.975,2.3l.15-1.05A1.251,1.251,0,0,1,9.375,0h1.25a1.251,1.251,0,0,1,1.25,1.25l.15,1.05a1.248,1.248,0,0,0,1.987.824l.849-.637a1.251,1.251,0,0,1,1.768,0l.884.884a1.252,1.252,0,0,1,0,1.768l-.637.848A1.25,1.25,0,0,0,17.7,7.975l1.05.15A1.251,1.251,0,0,1,20,9.375v1.25a1.251,1.251,0,0,1-1.25,1.25l-1.05.15a1.25,1.25,0,0,0-.824,1.987l.637.849a1.253,1.253,0,0,1,0,1.768l-.884.884a1.251,1.251,0,0,1-1.768,0l-.849-.637a1.248,1.248,0,0,0-1.987.824l-.15,1.05A1.251,1.251,0,0,1,10.625,20ZM10,7.5A2.5,2.5,0,1,0,12.5,10,2.5,2.5,0,0,0,10,7.5Z" fill="#fff"/>
</svg>
